<svg height="268" viewBox="0 0 206 268" width="206" xmlns="http://www.w3.org/2000/svg"><path d="m111.026 98.506c-42.5-.031-77.025 34.444-77.056 76.944s34.443 77.025 76.943 77.056 77.026-34.444 77.057-76.944-34.344-77.025-76.944-77.056zm-.08 109c-17.7-.013-31.989-14.324-31.976-32.024s14.323-31.989 32.023-31.976 31.99 14.323 31.977 32.023-14.324 31.99-32.024 31.977z" fill="#d31e44"/><path d="m205.219 108.575s30.499.822 31.899.823 51.454 63.338 51.454 63.338l.222-30 .025-34.1 39.9.029-.101 137.1-34.9.274-47.757-58.835-.042 58.3-40.901.171.101-137.1z" fill="#1d1d1d"/><path d="m18.209 78.239 117.077-65.802 20.137 35.83-117.077 65.802z" fill="#d31e44"/></svg>